<?xml version="1.0" encoding="UTF-8" standalone="no"?>
<svg width="635px" height="990px" viewBox="0 0 635 990" version="1.1" xmlns="http://www.w3.org/2000/svg" xmlns:xlink="http://www.w3.org/1999/xlink">
    <!-- Generator: Sketch 3.7.1 (28215) - http://www.bohemiancoding.com/sketch -->
    <title>Fill 1</title>
    <desc>Created with Sketch.</desc>
    <defs></defs>
    <g id="Page-1" stroke="none" stroke-width="1" fill="none" fill-rule="evenodd">
        <g id="180---iPhone-6-Plus" transform="translate(-183.000000, -5.000000)" fill="#1D1C1B">
            <path d="M604.807365,243.093348 C581.639532,231.670178 565.818407,208.763399 565.237967,181.971973 C564.386656,143.856279 594.856972,112.180198 633.298659,111.367005 C665.322342,110.636229 692.652756,131.608927 701.398047,160.70257 C708.048227,182.510439 728.369141,198.389688 752.471206,198.389688 C781.968595,198.389688 805.832955,174.669716 805.832955,145.361786 C805.832955,137.751834 804.1635,130.449577 801.87491,123.784688 C777.695453,53.333567 709.795073,3.34415065 630.965844,5.04196662 C533.485156,7.19033569 456.209294,87.416261 458.31546,184.329135 C459.636651,242.582354 489.41044,293.797055 534.109819,324.758845 L672.674577,400.056159 C694.598611,411.298008 709.988553,434.039951 710.530297,460.265438 C711.381608,498.436078 680.911292,530.073697 642.513829,530.908868 C625.758472,531.298981 610.252442,525.727508 598.079794,516.205452 L471.488676,402.528706 C440.045432,376.891136 399.541802,361.82508 355.699263,362.79212 C258.213046,364.913017 180.904016,445.177404 183.043351,542.051816 C184.403238,603.733635 217.676248,657.354949 266.847776,687.536512 L401.636913,760.136002 C421.349748,772.048186 434.716444,793.487921 435.263715,818.021087 C436.076331,856.175242 405.650238,887.851323 367.197495,888.675506 C333.227957,889.400786 304.465792,865.768727 297.666356,833.927809 C291.83432,810.713335 270.772654,793.779132 245.775054,793.779132 C216.316361,793.779132 192.374609,817.537566 192.374609,846.834507 C192.374609,852.697192 193.264616,857.878553 194.746119,863.417059 C214.873554,940.588015 286.046508,996.703854 369.53031,994.934609 C466.977831,992.808218 544.286861,912.543831 542.19175,815.702387 C540.748943,750.993071 504.374726,695.459653 451.317017,666.162712 L326.704922,599.261071 C305.24524,587.733505 290.557353,565.502555 289.971385,539.700148 C289.114546,501.524015 319.584862,469.886395 357.993381,469.056718 C375.721666,468.6721 392.045839,474.908414 404.555695,485.490918 L526.365096,595.156642 C558.239524,622.244774 599.716081,638.151496 644.802419,637.151488 C742.283108,635.091032 819.55897,554.766205 817.46386,457.952233 C816.021053,392.561593 778.789997,336.308389 724.792528,307.319143 L604.807365,243.093348 Z" id="Fill-1"></path>
        </g>
    </g>
</svg>